<?xml version="1.0" encoding="utf-8"?>
<!-- Generator: Adobe Illustrator 21.1.0, SVG Export Plug-In . SVG Version: 6.00 Build 0)  -->
<svg version="1.1" id="Layer_1" xmlns="http://www.w3.org/2000/svg" xmlns:xlink="http://www.w3.org/1999/xlink" x="0px" y="0px"
	 viewBox="0 0 644.2 265.4" style="enable-background:new 0 0 644.2 265.4;" xml:space="preserve">
<style type="text/css">
	.st0{fill:#001128;}
	.st1{fill:#EEE7B4;}
	.st2{fill:#FFCE00;}
	.st3{fill:#30A98D;}
	.st4{fill:#81C420;}
	.st5{fill:#FCCF12;}
	.st6{fill:#F58119;}
	.st7{fill:#E60E7C;}
	.st8{fill:#2E58A6;}
	.st9{fill:#8EF4D6;}
	.st10{fill:#D9FF97;}
	.st11{fill:#F9E178;}
	.st12{fill:#F7B279;}
	.st13{fill:#F99DD0;}
	.st14{fill:#6BA2F9;}
	.st15{fill:#5CE5BB;}
	.st16{fill:#BFEF62;}
	.st17{fill:#F4D038;}
	.st18{fill:#F49751;}
	.st19{fill:#F26BBC;}
	.st20{fill:#3E8BF9;}
	.st21{fill:#80C41C;}
	.st22{fill:#237D26;}
	.st23{fill:#01A0C6;}
	.st24{fill:#F2F91C;}
	.st25{fill:#FF8000;}
	.st26{fill:#F4136B;}
	.st27{fill:#1B8C53;}
	.st28{fill:#A3076B;}
	.st29{fill:#05D336;}
	.st30{fill:#DD6F0B;}
	.st31{fill:#1010FF;}
	.st32{fill:#ACD307;}
	.st33{fill:#C003DB;}
	.st34{fill:#2A82EA;}
	.st35{fill:#9FC405;}
	.st36{fill:#EFC206;}
	.st37{fill:#EF150A;}
	.st38{fill:#9D06ED;}
	.st39{fill:#509B96;}
	.st40{fill:#39A2F7;}
	.st41{fill:#FC892B;}
	.st42{fill:#A4D805;}
	.st43{fill:#F9571E;}
	.st44{fill:#FFCE31;}
	.st45{fill:#3F7A77;}
	.st46{fill:#D55A10;}
	.st47{fill:#7DB000;}
	.st48{fill:#EB331E;}
	.st49{fill:#F0AB11;}
	.st50{fill:#F03F9D;}
	.st51{fill:#E8BB00;}
	.st52{fill:none;stroke:#EEE7B4;stroke-miterlimit:10;}
	.st53{fill:none;stroke:#001128;stroke-width:3;stroke-miterlimit:10;}
	.st54{fill:none;stroke:#001128;stroke-width:9;stroke-miterlimit:10;}
	.st55{fill:none;stroke:#EEE7B4;stroke-width:5;stroke-miterlimit:10;}
	.st56{fill:none;stroke:#FFFFFF;stroke-width:3;stroke-miterlimit:10;}
	.st57{fill:none;stroke:#FFFFFF;stroke-width:9;stroke-miterlimit:10;}
	.st58{fill:#FFFFFF;}
</style>
<circle class="st56" cx="98.9" cy="121.9" r="64.2"/>
<circle class="st57" cx="179.5" cy="221.3" r="16.4"/>
<g>
	<path class="st58" d="M130.6,115.7v44.8h-13v-11.6c-2.8,4.7-6.2,8.1-10.4,10.3c-4.2,2.2-9.3,3.3-15.2,3.3c-8,0-14.4-2.3-19.1-6.8
		c-4.8-4.5-7.1-10.5-7.1-18.1c0-8.7,2.9-15.4,8.8-19.9c5.9-4.5,14.5-6.8,25.8-6.8h17.3v-2c0-6.3-1.6-10.8-4.8-13.6
		c-3.1-2.8-8.1-4.2-15-4.2c-4.4,0-8.8,0.6-13.3,1.9c-4.5,1.3-8.9,3.1-13.1,5.5V85.6c4.8-1.8,9.3-3.2,13.7-4.1
		c4.4-0.9,8.6-1.4,12.7-1.4c6.5,0,12,1,16.6,2.9c4.6,1.9,8.3,4.8,11.2,8.6c1.8,2.3,3,5.2,3.8,8.7
		C130.2,103.7,130.6,108.8,130.6,115.7z M105.5,121h-4.3c-7.5,0-13.2,1.3-17,4c-3.8,2.6-5.7,6.6-5.7,11.8c0,4.7,1.4,8.4,4.3,11
		c2.8,2.6,6.8,3.9,11.8,3.9c7.1,0,12.7-2.5,16.7-7.4c4.1-4.9,6.1-11.7,6.2-20.4V121H105.5z"/>
</g>
<line class="st56" x1="134.3" y1="175.9" x2="168.3" y2="209.9"/>
<g>
	<path class="st58" d="M207.4,128.1h-2.2c-0.6-3.9-2.1-6.7-4.4-8.7c-2.8-2.3-6.5-3.4-11.3-3.4c-4,0-7.3,0.9-10,2.8
		c-2.8,1.8-4,4-4,6.8c0,2.9,1.5,5.2,4.6,7.1c1.9,1.1,5.4,2.4,10.4,3.7c6.1,1.6,10.3,3,12.5,4.3c3.9,2.2,5.8,5.2,5.8,9.2
		c0,9.3-6,13.9-17.9,13.9c-11.6,0-17.9-5.3-19-15.9h2.3c0.6,4.9,2.2,8.4,5.1,10.6c2.6,2,6.4,3,11.6,3c10.4,0,15.6-3.9,15.6-11.7
		c0-3.3-1.7-5.8-5-7.5c-1.7-0.9-5.5-2.2-11.4-3.8c-5.5-1.5-9.4-2.9-11.5-4.2c-3.5-2.1-5.2-5-5.2-8.7c0-3.5,1.7-6.4,5-8.6
		c3.1-2.2,6.9-3.2,11.3-3.2C199.9,113.8,205.9,118.6,207.4,128.1z"/>
	<path class="st58" d="M214.8,115.1l17.5,43.4l17.4-43.4h2.6l-26.4,65.6h-2.6l7.8-19.4l-18.8-46.2H214.8z"/>
	<path class="st58" d="M294.8,133.5v29.1h-2.3v-29.1c0-11.7-5.1-17.4-15.2-17.4c-4.6,0-8.4,1.7-11.5,5c-3.1,3.3-4.7,7.5-4.9,12.8
		v28.7h-2.2v-47.4h2.2v9.3c1.5-3.2,3.6-5.8,6.5-7.7c2.9-1.9,6.1-2.8,9.8-2.8C288.9,113.8,294.8,120.3,294.8,133.5z"/>
	<path class="st58" d="M339.1,118c3.5,2.8,5.5,6.8,6.1,12.3H343c-0.6-4.8-2.5-8.3-5.4-10.6c-3.1-2.4-7-3.6-11.7-3.6
		c-5.8,0-10.4,2.2-13.9,6.8c-3.3,4.2-5,9.8-5,16.6c0,6.6,1.6,11.9,4.7,16c3.3,4.1,8,6.2,14,6.2c9.9,0,15.8-5.2,17.5-15.6h2.2
		c-0.9,5.7-3,10.1-6.4,13.2c-3.4,3-7.8,4.6-13.3,4.6c-6.8,0-12.1-2.4-15.8-7.2c-3.5-4.4-5.1-10.1-5.1-17.2c0-7.2,1.7-13.2,5.4-18
		c3.9-5.1,9.1-7.6,15.6-7.6C331.2,113.8,335.6,115.2,339.1,118z"/>
	<path class="st58" d="M406,105.8c5.1,6.2,7.8,14.3,7.8,24c0,9.7-2.7,17.7-7.9,24c-5.6,6.6-13.1,10-22.6,10c-9.5,0-17.1-3.4-22.6-10
		c-5.3-6.3-7.9-14.3-7.9-24c0-9.7,2.6-17.8,7.9-24c5.6-6.7,13.1-10,22.7-10C392.9,95.8,400.4,99.1,406,105.8z M362.5,107.2
		c-5,5.9-7.4,13.4-7.4,22.6c0,9.2,2.4,16.7,7.3,22.6c5.1,6.1,12.1,9.3,20.9,9.3c8.7,0,15.7-3.1,20.9-9.3c4.9-5.9,7.3-13.4,7.3-22.6
		c0-9.3-2.5-16.8-7.3-22.6c-5.1-6.2-12.1-9.3-20.8-9.3C374.6,98,367.6,101,362.5,107.2z"/>
	<path class="st58" d="M459.9,121.6c3.4,4.6,5.1,10.3,5.1,17.2s-1.7,12.8-5,17.3c-3.8,5-9,7.6-15.7,7.6c-9,0-15-4.5-18.3-13.4v30.3
		h-2.2v-65.6h2.2v12.3c3.7-9.1,9.7-13.6,18.3-13.6C450.9,113.8,456.1,116.4,459.9,121.6z M430.7,122.8c-3.1,4.1-4.6,9.4-4.6,15.8
		v1.2c0,6.2,1.5,11.4,4.5,15.4c3.3,4.2,7.9,6.4,13.8,6.4s10.5-2.3,13.9-6.7c3-4.2,4.6-9.5,4.6-16.1c0-6.5-1.6-11.8-4.6-16
		c-3.4-4.6-8-6.9-13.9-6.9S434,118.2,430.7,122.8z"/>
	<path class="st58" d="M484.3,115.1h13.6v2.2h-13.6v35.6c0,2.8,0.5,4.7,1.4,5.8c0.8,1.1,2.6,1.7,5.2,1.7h5.9v2.2h-5.9
		c-3.5,0-5.9-0.9-7.2-2.6c-1.1-1.5-1.7-3.9-1.7-7.1v-35.6H471v-2.2h11.1v-14.3l2.2-1V115.1z"/>
	<path class="st58" d="M513.1,100.5c0.5,0.6,0.9,1.2,0.9,2.1c0,0.8-0.4,1.6-0.9,2.1c-0.6,0.6-1.3,0.9-2.1,0.9
		c-0.9,0-1.6-0.4-2.1-0.9c-0.6-0.6-0.9-1.3-0.9-2.1c0-0.9,0.3-1.6,0.9-2.1c0.6-0.6,1.2-0.9,2.1-0.9
		C511.8,99.6,512.6,99.9,513.1,100.5z M512.1,115.1v47.4h-2.2v-47.4H512.1z"/>
	<path class="st58" d="M559.7,118c3.5,2.8,5.5,6.8,6.1,12.3h-2.2c-0.6-4.8-2.5-8.3-5.4-10.6c-3.1-2.4-7-3.6-11.7-3.6
		c-5.8,0-10.4,2.2-13.9,6.8c-3.3,4.2-5,9.8-5,16.6c0,6.6,1.6,11.9,4.7,16c3.3,4.1,8,6.2,14,6.2c9.9,0,15.8-5.2,17.5-15.6h2.2
		c-0.9,5.7-3,10.1-6.4,13.2c-3.4,3-7.8,4.6-13.3,4.6c-6.8,0-12.1-2.4-15.8-7.2c-3.5-4.4-5.1-10.1-5.1-17.2c0-7.2,1.7-13.2,5.4-18
		c3.9-5.1,9.1-7.6,15.6-7.6C551.8,113.8,556.2,115.2,559.7,118z"/>
	<path class="st58" d="M608.2,128.1H606c-0.6-3.9-2.1-6.7-4.4-8.7c-2.8-2.3-6.5-3.4-11.3-3.4c-4,0-7.3,0.9-10,2.8
		c-2.8,1.8-4,4-4,6.8c0,2.9,1.5,5.2,4.6,7.1c1.9,1.1,5.4,2.4,10.4,3.7c6.1,1.6,10.3,3,12.5,4.3c3.9,2.2,5.8,5.2,5.8,9.2
		c0,9.3-6,13.9-17.9,13.9c-11.6,0-17.9-5.3-19-15.9h2.3c0.6,4.9,2.2,8.4,5.1,10.6c2.6,2,6.4,3,11.6,3c10.4,0,15.6-3.9,15.6-11.7
		c0-3.3-1.7-5.8-5-7.5c-1.7-0.9-5.5-2.2-11.4-3.8c-5.5-1.5-9.4-2.9-11.5-4.2c-3.5-2.1-5.2-5-5.2-8.7c0-3.5,1.7-6.4,5-8.6
		c3.1-2.2,6.9-3.2,11.3-3.2C600.7,113.8,606.7,118.6,608.2,128.1z"/>
</g>
</svg>
